:SAMPLES-PER-SECOND 30
:FULLY-SPECIFIED
:DEGREES
709
root  37.0813 33.3647 30.198 -173.557 -46.0941 -169.106
RightUpLeg  -32.8969 -0.861404 10.8707
RightLeg  27.2587 -4.74156 -2.07228
RightFoot  -0.0559819 -0.000306321 0.0188486
RightToes  -15.5106 -0.0578714 -0.139783
Spine  -1.57964 -1.95643 3.48421
Spine1  -3.41056 -4.34673 7.71663
HEad  -71.4456 1.28936 3.61821
LeftShoulder1  -1.94126e-019 -3.10601e-018 -2.51263e-017
LeftArm  -10.8112 21.9386 -86.1079
LeftForeArm  34.8922 -23.6103 -4.14064
LeftHand  -0.469231 -1.97186 7.59011
RightShoulder  -4.96962e-017 0 -2.36833e-017
RightArm  -35.9798 -29.5652 71.5912
RightForeArm  59.0052 10.6559 1.53829
RightHand  -0.375142 -1.11798 -10.1219
LeftUpLeg  -9.37237 11.2825 6.10399
LeftLeg  44.86 10.0125 8.64024
LeftFoot  8.52812 -0.134548 1.96597
LeftToes  -69.5894 1.31378e-006 1.14341e-007
710
root  36.1467 33.5666 29.2158 -174.594 -46.2649 -169.08
RightUpLeg  -28.6058 -2.031 11.0068
RightLeg  25.2698 -4.04261 -1.60271
RightFoot  -1.39538 -0.00806645 0.124181
RightToes  -17.0217 -0.0654858 -0.152455
Spine  -1.36854 -1.67901 3.69198
Spine1  -2.99041 -3.77906 8.06491
HEad  -70.9768 0.676333 3.47365
LeftShoulder1  -1.94126e-019 -3.10601e-018 -2.51263e-017
LeftArm  -13.342 21.5078 -86.8407
LeftForeArm  32.4794 -24.3652 -4.23858
LeftHand  -0.451571 -1.3275 7.96103
RightShoulder  -4.96962e-017 0 -2.36833e-017
RightArm  -36.9264 -28.3892 70.2991
RightForeArm  60.0456 9.69347 1.52051
RightHand  -0.344226 -1.45041 -10.0231
LeftUpLeg  -13.5337 12.9982 6.67211
LeftLeg  55.0754 9.19896 11.3111
LeftFoot  18.9223 -0.766502 4.75875
LeftToes  -54.3579 1.31378e-006 1.14341e-007
711
root  35.246 33.8131 28.3481 -174.511 -46.691 -169.607
RightUpLeg  -24.7313 -2.98443 10.5695
RightLeg  22.2798 -3.70699 -1.24917
RightFoot  -1.97449 -0.0110609 0.162523
RightToes  -18.5656 -0.0736077 -0.16519
Spine  -1.24076 -1.4227 3.66826
Spine1  -2.69993 -3.20566 7.94549
HEad  -71.0004 0.0327381 4.13184
LeftShoulder1  -1.94126e-019 -3.10601e-018 -2.51263e-017
LeftArm  -14.4983 20.8447 -87.0047
LeftForeArm  29.3395 -25.4447 -4.42984
LeftHand  -0.440802 -0.835139 8.34806
RightShoulder  -4.96962e-017 0 -2.36833e-017
RightArm  -37.5757 -26.6641 69.5971
RightForeArm  61.0171 8.88728 1.46211
RightHand  -0.324026 -1.87817 -10.5216
LeftUpLeg  -19.2817 13.0142 5.68497
LeftLeg  63.828 9.54036 16.0932
LeftFoot  25.7208 -1.87495 8.36082
LeftToes  -34.5242 1.31378e-006 1.14341e-007
712
root  34.2621 34.0888 27.4833 -174.247 -46.6949 -171.001
RightUpLeg  -19.8533 -3.63037 9.37848
RightLeg  18.3341 -3.32756 -0.870263
RightFoot  -2.03541 -0.0118728 0.168328
RightToes  -19.1692 -0.076876 -0.170109
Spine  -0.96542 -1.05031 3.27138
Spine1  -2.08784 -2.37208 7.08722
HEad  -70.9241 -0.720589 5.01791
LeftShoulder1  -1.94126e-019 -3.10601e-018 -2.51263e-017
LeftArm  -14.5552 20.2331 -86.5161
LeftForeArm  28.0237 -26.2746 -4.56391
LeftHand  -0.461634 -0.96899 8.56421
RightShoulder  -4.96962e-017 0 -2.36833e-017
RightArm  -38.4134 -24.7817 69.6373
RightForeArm  62.2169 8.39347 1.40626
RightHand  -0.313333 -2.18461 -11.1016
LeftUpLeg  -23.1848 12.5472 3.98845
LeftLeg  67.8525 8.83207 17.5822
LeftFoot  20.7675 -1.30093 7.25238
LeftToes  -32.5393 1.31378e-006 1.14341e-007
713
root  33.2407 34.336 26.6548 -173.153 -46.4065 -173.122
RightUpLeg  -15.2682 -5.19208 7.67373
RightLeg  14.2701 -1.84245 -0.343962
RightFoot  -1.68725 -0.00916942 0.120096
RightToes  -20.5768 -0.0846972 -0.181443
Spine  -0.791081 -0.616023 2.66992
Spine1  -1.67853 -1.37471 5.84852
HEad  -70.6029 -1.25508 5.39297
LeftShoulder1  -1.94126e-019 -3.10601e-018 -2.51263e-017
LeftArm  -12.9369 19.9347 -85.5101
LeftForeArm  28.0429 -26.8833 -4.57308
LeftHand  -0.457097 -1.07261 8.35363
RightShoulder  -4.96962e-017 0 -2.36833e-017
RightArm  -36.9436 -22.8005 69.8483
RightForeArm  60.968 8.14493 1.37325
RightHand  -0.345855 -2.11482 -12.0365
LeftUpLeg  -26.858 11.9924 1.84342
LeftLeg  68.2462 7.64409 15.6086
LeftFoot  16.8321 -0.753091 5.24834
LeftToes  -29.0347 1.31378e-006 1.14341e-007
714
root  32.2376 34.464 25.8369 -171.951 -46.4743 -174.955
RightUpLeg  -11.2798 -8.31188 6.19322
RightLeg  10.5894 0.639997 0.0784407
RightFoot  -1.39283 -0.00599325 0.058839
RightToes  -22.2935 -0.0946094 -0.195002
Spine  -0.784058 -0.297393 2.09008
Spine1  -1.62778 -0.604169 4.66567
HEad  -70.1427 -1.81225 5.47749
LeftShoulder1  -1.94126e-019 -3.10601e-018 -2.51263e-017
LeftArm  -11.1225 19.9338 -84.2438
LeftForeArm  28.9912 -27.3577 -4.56302
LeftHand  -0.486781 -1.81738 8.02388
RightShoulder  -4.96962e-017 0 -2.36833e-017
RightArm  -32.5602 -22.55 70.4373
RightForeArm  57.0369 11.1209 1.53368
RightHand  -0.277026 -2.4247 -10.534
LeftUpLeg  -30.653 11.4392 0.107438
LeftLeg  66.5321 7.40753 14.096
LeftFoot  12.6345 -0.390431 3.68722
LeftToes  -28.2075 1.31378e-006 1.14341e-007
715
root  31.2699 34.4663 25.0163 -170.909 -46.6811 -176.286
RightUpLeg  -7.65032 -10.051 4.91574
RightLeg  7.38554 1.89208 0.123545
RightFoot  -1.57845 -0.00752811 0.0381159
RightToes  -22.2969 -0.0946296 -0.195028
Spine  -0.797701 0.00954363 1.6059
Spine1  -1.63692 0.123448 3.69488
HEad  -70.2703 -2.4094 5.4041
LeftShoulder1  -1.94126e-019 -3.10601e-018 -2.51263e-017
LeftArm  -9.51178 19.8836 -83.0907
LeftForeArm  28.888 -27.6089 -4.53242
LeftHand  -0.470002 -1.59913 7.97883
RightShoulder  -4.96962e-017 0 -2.36833e-017
RightArm  -27.4748 -21.2989 70.6279
RightForeArm  52.4896 12.7563 1.44523
RightHand  -0.327241 -1.85122 -10.5508
LeftUpLeg  -34.3352 11.2693 -1.08598
LeftLeg  63.0097 8.89289 14.595
LeftFoot  8.37471 -0.186983 2.71509
LeftToes  -25.0405 1.31378e-006 1.14341e-007
716
root  30.2753 34.3719 24.2067 -169.914 -46.8236 -177.505
RightUpLeg  -4.55558 -10.355 3.65926
RightLeg  5.23238 1.59605 0.0441795
RightFoot  -2.21808 -0.00962774 0.0479777
RightToes  -22.2583 -0.0944023 -0.194727
Spine  -0.765741 0.274452 1.13084
Spine1  -1.57077 0.73342 2.75121
HEad  -70.7989 -2.85293 5.32528
LeftShoulder1  -1.94126e-019 -3.10601e-018 -2.51263e-017
LeftArm  -9.54365 19.7914 -82.172
LeftForeArm  28.7302 -27.0941 -4.38852
LeftHand  -0.462092 -1.67274 7.77118
RightShoulder  -4.96962e-017 0 -2.36833e-017
RightArm  -22.9468 -20.2368 70.8854
RightForeArm  49.385 15.2268 1.25587
RightHand  -0.328385 -1.72933 -10.2491
LeftUpLeg  -37.1069 11.0152 -1.89734
LeftLeg  57.1408 11.4634 15.0014
LeftFoot  5.78951 -0.100351 2.14594
LeftToes  -23.372 1.31378e-006 1.14341e-007
717
root  29.2303 34.2186 23.4022 -169.055 -47.0989 -178.368
RightUpLeg  -2.03843 -8.79169 2.75296
RightLeg  4.23755 -0.399847 -0.00293841
RightFoot  -3.34042 -0.0115514 0.157265
RightToes  -20.7599 -0.085735 -0.182904
Spine  -0.800397 0.414808 0.776777
Spine1  -1.64247 1.05908 2.06687
HEad  -71.391 -3.18878 5.04893
LeftShoulder1  -1.94126e-019 -3.10601e-018 -2.51263e-017
LeftArm  -10.5926 19.9474 -81.6868
LeftForeArm  28.4756 -25.8611 -4.14349
LeftHand  -0.466875 -1.57547 7.95194
RightShoulder  -4.96962e-017 0 -2.36833e-017
RightArm  -20.351 -18.903 70.9426
RightForeArm  48.5232 17.0537 1.32304
RightHand  -0.352818 -1.53944 -10.5059
LeftUpLeg  -38.8046 10.3825 -2.06583
LeftLeg  48.4227 13.2586 12.7965
LeftFoot  3.81243 -0.042742 1.44576
LeftToes  -22.6966 1.31378e-006 1.14341e-007
718
root  28.1095 34.032 22.6087 -168.042 -47.6349 -179.249
RightUpLeg  -0.227703 -8.33001 1.83971
RightLeg  4.48118 -1.7882 -0.0238336
RightFoot  -5.09984 -0.0108132 0.315306
RightToes  -19.4596 -0.0784665 -0.172463
Spine  -0.963478 0.448264 0.43208
Spine1  -1.96765 1.11932 1.43237
HEad  -71.7597 -3.72133 4.83544
LeftShoulder1  -1.94126e-019 -3.10601e-018 -2.51263e-017
LeftArm  -11.4692 20.3896 -81.3329
LeftForeArm  27.5719 -24.1352 -3.87525
LeftHand  -0.469648 -1.22699 8.39144
RightShoulder  -4.96962e-017 0 -2.36833e-017
RightArm  -19.2611 -17.9062 71.0176
RightForeArm  48.1398 18.6054 1.61603
RightHand  -0.352458 -1.59316 -10.6376
LeftUpLeg  -39.2781 8.02609 -1.34032
LeftLeg  37.2258 11.7181 7.66303
LeftFoot  2.91899 -0.0188069 0.899704
LeftToes  -24.4438 1.31378e-006 1.14341e-007
719
root  26.9381 33.7881 21.8054 -167.168 -48.1518 -179.843
RightUpLeg  1.29514 -7.4269 1.16499
RightLeg  5.36303 -3.49029 -0.100899
RightFoot  -6.95837 0.00220167 0.602229
RightToes  -18.5169 -0.0733464 -0.164792
Spine  -1.21108 0.505589 0.177955
Spine1  -2.46008 1.19442 0.979317
HEad  -71.8392 -4.43117 4.82658
LeftShoulder1  -1.94126e-019 -3.10601e-018 -2.51263e-017
LeftArm  -12.2019 21.2409 -81.0331
LeftForeArm  25.359 -22.8877 -3.73733
LeftHand  -0.432803 -0.868175 8.15804
RightShoulder  -4.96962e-017 0 -2.36833e-017
RightArm  -18.6522 -17.462 70.9967
RightForeArm  47.1754 20.9202 2.09281
RightHand  -0.346122 -1.66157 -10.6274
LeftUpLeg  -39.4738 1.56533 1.93929
LeftLeg  27.9906 9.26985 4.15748
LeftFoot  2.43231 -0.00925006 0.597276
LeftToes  -28.4095 1.31378e-006 1.14341e-007
720
root  25.6952 33.5099 21.0369 -165.513 -48.5678 178.859
RightUpLeg  2.21091 -7.34865 -0.164464
RightLeg  7.07266 -4.30591 -0.253138
RightFoot  -8.53355 0.0196915 0.833526
RightToes  -20.8438 -0.0862125 -0.183572
Spine  -1.51786 0.5906 -0.223669
Spine1  -3.08799 1.35607 0.190688
HEad  -72.0139 -5.10839 5.2248
LeftShoulder1  -1.94126e-019 -3.10601e-018 -2.51263e-017
LeftArm  -12.499 22.1806 -80.4673
LeftForeArm  24.0979 -21.8962 -3.57861
LeftHand  -0.392901 -0.872091 7.41162
RightShoulder  -4.96962e-017 0 -2.36833e-017
RightArm  -18.7958 -17.4765 71.2245
RightForeArm  46.9194 23.2979 2.5667
RightHand  -0.34971 -1.4837 -10.269
LeftUpLeg  -41.6046 -7.34678 6.50147
LeftLeg  25.3393 9.90826 3.9051
LeftFoot  1.92444 -0.00595828 0.516311
LeftToes  -27.3935 1.31378e-006 1.14341e-007
721
root  24.3713 33.2026 20.2696 -163.924 -48.7228 178.032
RightUpLeg  2.92613 -7.25507 -1.4055
RightLeg  8.86889 -4.42277 -0.399344
RightFoot  -9.13949 0.0268346 0.905797
RightToes  -25.7088 -0.115515 -0.221063
Spine  -1.74579 0.805508 -0.514669
Spine1  -3.55559 1.78589 -0.39044
HEad  -73.1521 -5.80952 6.03938
LeftShoulder1  -1.94126e-019 -3.10601e-018 -2.51263e-017
LeftArm  -12.4225 23.0344 -79.9161
LeftForeArm  24.4052 -21.9732 -3.53181
LeftHand  -0.378013 -1.21101 6.79583
RightShoulder  -4.96962e-017 0 -2.36833e-017
RightArm  -18.6536 -17.4804 71.2382
RightForeArm  46.4106 25.0268 2.93636
RightHand  -0.345847 -1.56361 -10.3567
LeftUpLeg  -45.2683 -11.8069 9.3587
LeftLeg  27.8526 9.41039 4.19283
LeftFoot  1.48018 -0.00335846 0.421547
LeftToes  -25.3853 1.31378e-006 1.14341e-007
722
root  22.9396 32.8681 19.4555 -162.917 -47.9563 177.612
RightUpLeg  4.01567 -6.4696 -2.75542
RightLeg  10.465 -4.19241 -0.496646
RightFoot  -8.88644 0.0222203 0.855089
RightToes  -32.2345 -0.159607 -0.267192
Spine  -1.77764 1.35723 -0.837957
Spine1  -3.63363 2.87911 -1.04312
HEad  -75.2737 -6.70865 7.25278
LeftShoulder1  -1.94126e-019 -3.10601e-018 -2.51263e-017
LeftArm  -12.0827 24.0936 -79.0654
LeftForeArm  24.0502 -23.7916 -3.81467
LeftHand  -0.356644 -1.17573 6.45052
RightShoulder  -4.96962e-017 0 -2.36833e-017
RightArm  -19.9356 -17.549 71.8142
RightForeArm  46.6824 25.7253 3.06782
RightHand  -0.352933 -1.6974 -10.9417
LeftUpLeg  -48.1102 -10.4278 8.80093
LeftLeg  33.2816 7.32118 4.13533
LeftFoot  1.17518 -0.00173029 0.330273
LeftToes  -31.2526 1.31378e-006 1.14341e-007
723
root  21.4287 32.5186 18.5789 -162.217 -46.1863 177.504
RightUpLeg  5.18144 -4.0519 -4.03169
RightLeg  11.8515 -4.53192 -0.648458
RightFoot  -7.76069 0.0171516 0.825218
RightToes  -39.9127 -0.217786 -0.314628
Spine  -1.81521 1.8468 -1.30808
Spine1  -3.73609 3.84094 -1.98308
HEad  -76.9748 -7.05854 8.87916
LeftShoulder1  -1.94126e-019 -3.10601e-018 -2.51263e-017
LeftArm  -11.8947 26.0999 -77.0728
LeftForeArm  23.0944 -27.3626 -4.60002
LeftHand  -0.287981 -1.27084 5.16532
RightShoulder  -4.96962e-017 0 -2.36833e-017
RightArm  -20.1074 -16.6289 73.1216
RightForeArm  46.6449 24.1846 2.76125
RightHand  -0.354271 -1.89117 -11.5713
LeftUpLeg  -49.9813 -7.27698 7.51161
LeftLeg  39.7337 5.36977 3.89061
LeftFoot  -0.495677 -0.000251905 0.103232
LeftToes  -33.8047 1.31378e-006 1.14341e-007
